<?xml version="1.0" encoding="utf-8"?>
<!-- Generator: Adobe Illustrator 18.1.1, SVG Export Plug-In . SVG Version: 6.00 Build 0)  -->
<svg version="1.1" id="Capa_1" xmlns="http://www.w3.org/2000/svg" xmlns:xlink="http://www.w3.org/1999/xlink" x="0px" y="0px"
	 viewBox="-67 158.5 476.5 476.5" enable-background="new -67 158.5 476.5 476.5" xml:space="preserve">
<g>
	<path fill="#FFFFFF" d="M209.6,196.6c-2-3.2-2.7-5.3-2.7-5.3l1-0.9c0,0,1.9,0.8,5.2,2.1c1.6,0.6,3.5,1.4,5.7,2.3
		c2.2,0.8,4.5,1.7,7,2.3c1.2,0.4,2.5,0.8,3.8,0.9c0.7,0.1,1.3,0.3,1.9,0.4c0.6,0,1.3,0.1,1.9,0.1c2.6,0.4,5,0.1,7.6-0.1
		c1.2-0.4,2.6-0.6,3.9-1.1c1.2-0.7,2.8-1.1,3.9-2.1c0.6-0.4,1.2-0.8,1.9-1.3c0.7-0.4,1.4-0.7,2.2-1.5l4.6-3.9c0-0.1-0.3,0.4-0.1,0.2
		l0,0l0.1-0.1l0.2-0.1l0.3-0.3l0.6-0.5l1.2-1.1l2.3-2.2c1.4-1.5,3.3-2.6,4.7-4.1c1.4-1.5,3.4-2.4,4.9-3.8c1.6-1.3,3.6-2.3,5.4-3.5
		c3.9-1.8,8.4-3.2,12.5-2.6c1,0.1,2,0.3,3,0.4c0.9,0.3,1.8,0.6,2.7,0.9c1.8,0.6,3.3,1.4,4.8,2.3c2.9,1.7,5.2,3.6,7.1,5.5
		c1.8,1.9,3.2,3.7,4.2,5.3c1,1.6,1.6,3,2.1,3.9c0.4,1,0.5,1.5,0.5,1.5l-1,0.9c0,0-2.1-0.7-5.3-2c-1.6-0.6-3.5-1.4-5.6-2.3
		c-2.1-0.9-4.4-1.8-6.9-2.6c-1.2-0.4-2.5-0.9-3.7-1.2c-0.6-0.2-1.3-0.4-1.9-0.6c-0.6-0.1-1.3-0.3-1.9-0.5c-2.6-0.9-5.3-1.7-8.7-2
		c-1.5,0.2-3.4,0.1-5,0.8c-1.5,0.8-3.3,1.4-4.5,2.8c-1.2,1.3-2.7,2.5-3.5,4.2l-1.3,2.5l-0.6,1.3l-0.3,0.6l-0.1,0.3l-0.1,0.1l0,0.1
		l0,0c0.1-0.2-0.2,0.3-0.2,0.3l-2.5,5.5c-0.8,1.8-2.7,3.8-4.2,5.6c-1.6,1.9-3.6,3-5.5,4.5c-1.9,1.4-4.3,2.2-6.5,3.1
		c-4.6,1.3-9.5,1.6-13.5,0.5c-2.1-0.5-4-1.1-5.7-1.9c-1.8-0.7-3.3-1.7-4.7-2.6c-2.9-1.9-5.1-3.9-6.9-5.8
		C212,200.1,210.6,198.2,209.6,196.6z M409.5,509.5v113.6H-67V509.5h32.5V381.9l91.5-64.2v64.2l91.5-64.2v64.2l91.5-64.2v126.1h31.6
		l17.1-223.1h52.3l15,223.1h35.2v65.7L409.5,509.5L409.5,509.5L409.5,509.5z M82.4,460.5H10.5v66.4h71.9V460.5z M206.3,460.5h-71.9
		v66.4h71.9V460.5z M331.8,460.5h-71.9v66.4h71.9V460.5z"/>
</g>
</svg>
