<?xml version="1.0" encoding="utf-8"?>
<svg version="1.1" id="Layer_1" xmlns="http://www.w3.org/2000/svg" xmlns:xlink="http://www.w3.org/1999/xlink" x="0px" y="0px"
	 viewBox="0 0 640 111.6" enable-background="new 0 0 640 111.6" xml:space="preserve">
<g id="subject">
	<g>
		<path fill="#1D1D1B" stroke="#1D1D1B" stroke-width="0.25" stroke-miterlimit="10" d="M381.2,45.4c5.5,1.4,10,3,13.4,5
			c3.4,1.9,6.1,4,8.1,6.2c2,2.2,3.3,4.4,4,6.7c0.7,2.2,1,4.4,1,6.4c0,3.1-0.7,6-2.2,8.7c-1.4,2.7-3.4,5.1-5.9,7.1
			c-2.5,2-5.4,3.6-8.8,4.8c-3.4,1.2-7,1.8-10.8,1.8c-3.5,0-6.9-0.5-10.1-1.5c-3.2-1-6-2.4-8.4-4.2c-2.4-1.8-4.4-3.9-6-6.3
			c-1.6-2.4-2.6-5-2.9-7.9l9-1.8c1,3.3,3.2,6.1,6.4,8.4c3.3,2.3,7.3,3.4,12,3.4c2.4,0,4.6-0.3,6.8-1c2.1-0.7,4-1.6,5.6-2.7
			c1.6-1.2,2.8-2.5,3.7-4c0.9-1.5,1.4-3.1,1.4-4.8c0-6.6-6.2-11.5-18.6-14.6c-3-0.7-6-1.6-9-2.5c-3-0.9-5.8-2.2-8.2-3.7
			c-2.4-1.6-4.4-3.5-6-5.9c-1.6-2.4-2.3-5.4-2.3-9.1c0-3.1,0.6-6,1.8-8.6c1.2-2.6,3-4.9,5.2-6.8c2.2-1.9,4.9-3.4,8.1-4.4
			c3.2-1.1,6.7-1.6,10.5-1.6c3.4,0,6.6,0.5,9.5,1.5s5.6,2.4,7.8,4.2c2.2,1.8,4.1,3.9,5.5,6.3c1.4,2.4,2.3,5.1,2.7,8l-9,2
			c-0.8-3.5-2.6-6.3-5.4-8.6c-2.8-2.2-6.5-3.4-11.1-3.4c-4.8,0-8.6,1.1-11.3,3.3c-2.7,2.2-4.1,4.9-4.1,8.2c0,1.3,0.2,2.5,0.7,3.5
			c0.5,1,1.3,2,2.6,2.9c1.3,0.9,3,1.7,5.3,2.5C374.5,43.6,377.5,44.5,381.2,45.4z"/>
		<path fill="#1D1D1B" stroke="#1D1D1B" stroke-width="0.25" stroke-miterlimit="10" d="M441.5,45.2c-2.6,0-5.1,0.5-7.4,1.5
			c-2.3,1-4.3,2.3-6,4c-1.7,1.7-3,3.6-4,6c-1,2.3-1.5,4.8-1.5,7.4c0,2.6,0.5,5.1,1.5,7.4c1,2.3,2.3,4.3,4,6.1c1.7,1.7,3.6,3.1,6,4.1
			c2.3,1,4.8,1.5,7.4,1.5c3.4,0,6.4-0.8,9.2-2.4c2.7-1.6,4.9-3.7,6.6-6.3l7.7,5c-2.5,3.9-5.8,7-9.9,9.3c-4.1,2.3-8.6,3.5-13.5,3.5
			c-3.9,0-7.6-0.7-10.9-2.2c-3.4-1.5-6.4-3.5-8.9-6c-2.5-2.5-4.5-5.5-6-8.9c-1.5-3.4-2.2-7-2.2-10.9c0-3.8,0.7-7.4,2.2-10.8
			c1.5-3.4,3.5-6.3,6-8.8c2.5-2.5,5.5-4.5,8.9-6c3.4-1.5,7-2.2,10.9-2.2c4.9,0,9.4,1.2,13.5,3.5c4.1,2.3,7.4,5.4,9.9,9.3l-7.6,5
			c-1.7-2.7-3.9-4.8-6.6-6.4C448,46,444.9,45.2,441.5,45.2z"/>
		<path fill="#1D1D1B" stroke="#1D1D1B" stroke-width="0.25" stroke-miterlimit="10" d="M522.2,38.2v52h-9.3v-6.1
			c-2.3,2.5-5,4.5-8.1,5.9c-3.1,1.4-6.5,2.1-10.1,2.1c-3.6,0-7-0.7-10.1-2.2c-3.1-1.4-5.9-3.4-8.2-6c-2.3-2.5-4.2-5.5-5.6-8.9
			s-2.1-7-2.1-10.9c0-3.8,0.7-7.4,2.1-10.8c1.4-3.4,3.2-6.4,5.6-8.9c2.3-2.5,5.1-4.5,8.2-6c3.1-1.5,6.5-2.2,10.1-2.2
			c3.6,0,7,0.7,10.1,2.1c3.1,1.4,5.8,3.4,8.1,5.9v-6.1H522.2z M495.5,83.2c2.4,0,4.6-0.5,6.8-1.5c2.1-1,4-2.4,5.6-4.1
			c1.6-1.7,2.8-3.7,3.7-6c0.9-2.3,1.4-4.8,1.4-7.4c0-2.6-0.5-5.1-1.4-7.4c-0.9-2.3-2.2-4.3-3.7-6c-1.6-1.7-3.4-3.1-5.6-4.1
			c-2.1-1-4.4-1.5-6.8-1.5c-2.4,0-4.6,0.5-6.8,1.5c-2.1,1-4,2.4-5.6,4.1c-1.6,1.7-2.9,3.7-3.8,6c-0.9,2.3-1.4,4.8-1.4,7.4
			c0,2.6,0.5,5.1,1.4,7.4c0.9,2.3,2.2,4.3,3.8,6c1.6,1.7,3.4,3.1,5.6,4.1C490.8,82.7,493.1,83.2,495.5,83.2z"/>
		<path fill="#1D1D1B" stroke="#1D1D1B" stroke-width="0.25" stroke-miterlimit="10" d="M533.2,90.2V14.1h9.2v76.1H533.2z"/>
		<path fill="#1D1D1B" stroke="#1D1D1B" stroke-width="0.25" stroke-miterlimit="10" d="M602.5,38.2v52h-9.3v-6.1
			c-2.3,2.5-5,4.5-8.1,5.9c-3.1,1.4-6.5,2.1-10.1,2.1c-3.6,0-7-0.7-10.1-2.2c-3.1-1.4-5.9-3.4-8.2-6c-2.3-2.5-4.2-5.5-5.6-8.9
			s-2.1-7-2.1-10.9c0-3.8,0.7-7.4,2.1-10.8c1.4-3.4,3.2-6.4,5.6-8.9c2.3-2.5,5.1-4.5,8.2-6c3.1-1.5,6.5-2.2,10.1-2.2
			c3.6,0,7,0.7,10.1,2.1c3.1,1.4,5.8,3.4,8.1,5.9v-6.1H602.5z M575.8,83.2c2.4,0,4.6-0.5,6.8-1.5c2.1-1,4-2.4,5.6-4.1
			c1.6-1.7,2.8-3.7,3.7-6c0.9-2.3,1.4-4.8,1.4-7.4c0-2.6-0.5-5.1-1.4-7.4c-0.9-2.3-2.2-4.3-3.7-6c-1.6-1.7-3.4-3.1-5.6-4.1
			c-2.1-1-4.4-1.5-6.8-1.5s-4.6,0.5-6.8,1.5s-4,2.4-5.6,4.1c-1.6,1.7-2.9,3.7-3.8,6c-0.9,2.3-1.4,4.8-1.4,7.4c0,2.6,0.5,5.1,1.4,7.4
			c0.9,2.3,2.2,4.3,3.8,6c1.6,1.7,3.4,3.1,5.6,4.1C571.1,82.7,573.4,83.2,575.8,83.2z"/>
	</g>
	<path fill="#1D1D1B" d="M610.1,0.6v11.1c6.8,2.2,11.8,8.6,11.8,16.2v56.5c0,7.6-5,14-11.8,16.2v11.1c12.8-2.4,22.5-13.7,22.5-27.2
		V27.8C632.6,14.3,622.9,3,610.1,0.6z"/>
	<path fill="#1D1D1B" d="M342.8,0.6v11.1C336,13.8,331,20.3,331,27.8v56.5c0,7.6,5,14,11.8,16.2v11.1c-12.8-2.4-22.5-13.7-22.5-27.2
		V27.8C320.3,14.3,330,3,342.8,0.6z"/>
</g>
<g id="apply">
	<g>
		<g>
			<path fill="#E20613" d="M78.7,35.5L78.7,35.5v40.1l0,0V88h-14v-5.3c-6.3,4.8-13.4,7.2-21.4,7.2c-9.6,0-17.9-3.3-24.7-10
				C11.6,73.1,8.2,65,8.2,55.5s3.4-17.6,10.3-24.4S33.6,21,43.2,21c8,0,15.1,2.4,21.4,7.2V23h14V35.5z M43.2,75.9c5.9,0,10.8-2,15-6
				c4.1-4,6.2-8.8,6.2-14.4S62.3,45,58.2,41c-4.2-4-9.1-6-15-6s-10.8,2-14.9,6c-4.2,4-6.2,8.8-6.2,14.4s2.1,10.5,6.2,14.4
				C32.4,73.8,37.4,75.9,43.2,75.9z"/>
		</g>
	</g>
	<g>
		<g>
			<path fill="#E20613" d="M156,55.4c0,9.4-3.4,17.4-10.3,24c-6.8,6.6-15,9.9-24.7,9.9c-7.9,0-15-2.3-21.4-7.1v29.3H85.8V96.3l0,0
				V35.5l0,0V23.3h13.9v5.2c6.4-4.7,13.5-7.1,21.4-7.1c9.6,0,17.9,3.3,24.7,9.9C152.6,38,156,46,156,55.4z M142.2,55.4
				c0-5.5-2.1-10.3-6.2-14.2s-9.1-5.9-14.9-5.9s-10.8,2-14.9,5.9s-6.2,8.7-6.2,14.2s2.1,10.3,6.2,14.2c4.1,4,9.1,5.9,14.9,5.9
				s10.8-2,14.9-5.9C140.1,65.7,142.2,60.9,142.2,55.4z"/>
		</g>
	</g>
	<g>
		<g>
			<path fill="#E20613" d="M230.9,55.4c0,9.4-3.4,17.4-10.3,24c-6.8,6.6-15,9.9-24.7,9.9c-7.9,0-15-2.3-21.4-7.1v29.3h-13.9V96.3
				l0,0V35.5l0,0V23.3h13.9v5.2c6.4-4.7,13.5-7.1,21.4-7.1c9.6,0,17.9,3.3,24.7,9.9C227.5,38,230.9,46,230.9,55.4z M217,55.4
				c0-5.5-2.1-10.3-6.2-14.2s-9.1-5.9-14.9-5.9s-10.8,2-14.9,5.9s-6.2,8.7-6.2,14.2s2.1,10.3,6.2,14.2c4.1,4,9.1,5.9,14.9,5.9
				s10.8-2,14.9-5.9C214.9,65.7,217,60.9,217,55.4z"/>
		</g>
	</g>
	<g>
		<g>
			<path fill="#E20613" d="M236,0h14.5v75.4l0,0v12.7H236V75.4l0,0V12.7l0,0V0z"/>
		</g>
	</g>
	<g>
		<g>
			<path fill="#E20613" d="M299.7,23.4h14.7l-4.2,11.7l-28,76.5h-13.6l8.2-24.6l-17.4-51.9l-3.6-11.7H270l14.9,46.5L299.7,23.4z"/>
		</g>
	</g>
</g>
</svg>
